<svg xmlns="http://www.w3.org/2000/svg" xmlns:xlink="http://www.w3.org/1999/xlink"><defs><clipPath id="a"><path fill="#fff" d="M0 0h128v24H0z"/></clipPath><clipPath id="a"><path fill="#fff" d="M0 0h27v34H0z"/></clipPath><clipPath id="a"><path fill="#fff" d="M0 0h33.32v37.61H0z"/></clipPath><clipPath id="b"><path fill="#fff" d="M90 13h101v18H90z"/></clipPath><clipPath id="a"><path fill="#fff" d="M0 0h101v18H0z"/></clipPath><clipPath id="a"><path fill="#fff" d="M30 0h140v194H30z"/></clipPath><clipPath id="a"><path fill="#fff" d="M7 0h36v50H7z"/></clipPath><clipPath id="a"><path fill="#fff" d="M15.5 14h30v32h-30z"/></clipPath><clipPath id="a"><path fill="#fff" d="M0 44h268v112H0z"/></clipPath><clipPath id="a"><path fill="#fff" d="M0 11h67v28H0z"/></clipPath></defs><symbol id="sprite"/><symbol id="icon"><rect width="32" height="32" rx="8" fill="#EEE"/><path d="M5.826 20.98a4.476 4.476 0 0 1-.814-2.89v-4.18a4.545 4.545 0 0 1 .802-2.918c.538-.665 1.458-.996 2.76-.992 1.302.004 2.183.295 2.644.875.562.718.837 1.605.773 2.501v.98H9.585v-1.063a5.348 5.348 0 0 0-.075-.836.922.922 0 0 0-.273-.53.918.918 0 0 0-.669-.205.881.881 0 0 0-.504.076.834.834 0 0 0-.367.341c-.153.392-.22.809-.198 1.226v5.304c-.026.42.051.84.227 1.225.084.14.208.252.358.324.15.072.318.101.484.083a.814.814 0 0 0 .477-.08.768.768 0 0 0 .337-.332 3.13 3.13 0 0 0 .18-1.22v-1.115h2.406v.964a3.915 3.915 0 0 1-.715 2.568c-.511.613-1.395.914-2.65.914s-2.237-.334-2.777-1.02ZM15.21 10h2.597L20 22h-2.16l-.389-2.651h-1.82l-.438 2.634H13L15.21 10Zm2 7.84-.69-4.823-.686 4.823h1.376ZM21.813 11.808H20V10h6v1.808h-1.791V22h-2.401l.005-10.192Z" fill="#111"/></symbol><symbol id="footer-catenergy-text"><g clip-path="url(#a)" fill="#111"><path d="M1.6 22.05A9.5 9.5 0 0 1 0 16.31V7.79a9.63 9.63 0 0 1 1.5-5.84C2.6.62 4.3 0 6.81 0c2.5 0 4.1.62 5.1 1.74a7.49 7.49 0 0 1 1.51 5.03v2.05h-4.9V6.46c.03-.7-.07-1.4-.3-2.05a1.46 1.46 0 0 0-.59-.63 1.41 1.41 0 0 0-.82-.19c-.7 0-1.2.2-1.4.72-.23.73-.33 1.49-.3 2.25v10.98c-.05.74.08 1.48.4 2.15.2.52.7.72 1.4.72s1.1-.2 1.3-.72c.23-.7.33-1.42.3-2.15v-2.46h4.91v2.05a7.98 7.98 0 0 1-1.5 5.13c-1 1.23-2.7 1.84-5.1 1.84-2.41-.1-4.22-.72-5.22-2.05ZM19.33.3h5.7l4.22 23.4h-4.61l-.8-4.93h-3.3l-.8 4.92h-4.72L19.33.31Zm4.1 15.4-1.2-9.14-1.2 9.13h2.4Zm9.32-11.5h-3.4V.3h11.91v3.8h-3.4v19.6h-5.1V4.2ZM50.38.3h8.81v2.47h-5.7v7.7h4.6v2.35h-4.6v8.62h5.7v2.35h-8.91V.31h.1ZM61.8.3H64l6.51 15.5V.3h2.6v23.4h-2l-6.6-16v16H61.8V.3Zm14.32 0h8.81v2.47h-5.7v7.7h4.6v2.35h-4.6v8.62h5.7v2.35h-8.81V.31Zm11.42 0h4.6a7.87 7.87 0 0 1 5.11 1.44c1.1.93 1.6 2.57 1.6 4.72 0 2.98-.9 4.82-2.8 5.44l3.2 11.69h-3.1l-3-10.97h-2.5v10.97h-3.21V.31h.1Zm4.4 10.06a4.3 4.3 0 0 0 2.9-.82c.6-.51.91-1.54.91-3.08a6.77 6.77 0 0 0-.3-2.25 2.58 2.58 0 0 0-1.1-1.24 4.47 4.47 0 0 0-2.2-.4h-1.4v7.69h1.2v.1Zm10.92 11.59a10.57 10.57 0 0 1-1.4-5.95V8.2c-.03-1.48.14-2.96.5-4.4a5.2 5.2 0 0 1 1.9-2.67c1.12-.68 2.41-1 3.7-.92 2.11 0 3.61.5 4.52 1.64a7.98 7.98 0 0 1 1.4 5.12v.82h-3v-.71c0-.86-.07-1.72-.2-2.57a2.06 2.06 0 0 0-.8-1.33 3.04 3.04 0 0 0-1.91-.51 2.96 2.96 0 0 0-2 .61 2.3 2.3 0 0 0-.8 1.64c-.14.92-.2 1.85-.2 2.77v8.72a9.53 9.53 0 0 0 .6 3.9c.4.82 1.2 1.13 2.4 1.13a2.37 2.37 0 0 0 2.4-1.23c.53-1.3.77-2.7.7-4.1v-1.65h-2.9V12.1h5.8v11.6h-2l-.3-2.67c-.26.89-.8 1.67-1.55 2.2-.74.55-1.64.81-2.55.77a4.9 4.9 0 0 1-4.3-2.05Zm17.13-6.46L115.08.4h3l3.51 11.28L124.99.4H128l-4.9 15.08v8.2h-3.01v-8.2h-.1Z"/></g></symbol><symbol id="htmlacademy-logo"><g clip-path="url(#a)"><path d="M13.64.02 13.5 0 0 1.4v24.61L13.5 34 27 26.01V1.41L13.64 0Zm11.6 25L13.5 31.96 1.77 25.02v-10.1l11.68 6.93.02 1.25-8.02-4.75v1.23l8.04 4.8.02 1.3-8.05-4.76v1.22l8.04 4.81 8.12-4.83V16.9l3.62-2.15v10.26Zm0-11.57L22 15.33l-1.48.88-7.06-4.19-.01 1.23 6.04 3.57-.06.03-.13.07-.86.5-4.98-2.95-.01 1.22 3.93 2.33-.93.61-.02.01-2.97-1.74-.01 1.23 1.94 1.13-1.98 1.19L1.8 13.58l11.63-6.96 11.8 6.83Zm0-1.22L13.43 5.3 1.77 12.22V2.99L13.5 1.76 25.23 3v9.24Z" fill="#666"/></g></symbol><symbol id="Logo_mobile-closed"><path transform="matrix(.68659 -.72705 .68659 .72705 2 20)" stroke="#000" stroke-width="1.5" d="M0-.75h24.76"/><path transform="matrix(.68659 .72705 -.68659 .72705 1 2)" stroke="#000" stroke-width="1.5" d="M0-.75h24.76"/></symbol><symbol id="Logo_mobile-toggle"><path stroke="#000" stroke-width="1.5" d="M0 1.25h24m-24 8h24m-24 8h24"/></symbol><symbol id="cat-logo-mobile"><g clip-path="url(#a)"><path d="M6.07 20.72v-2.26c6.68-.92 13.42-1.36 20.17-1.33 0 .6 0 1.21-.06 1.82a25.52 25.52 0 0 1 6-1.82A16.67 16.67 0 0 0 .19 20.39l5.88.33Zm21.17 3.51c-1.16 1.28-1.39 1.2-1.39 3.45v9.18A16.64 16.64 0 0 0 33.32 23a17.3 17.3 0 0 0-.32-3.1 33.1 33.1 0 0 0-5.76 4.33ZM6.36 25.72s-3.79-1.44-5.19-1.83A8.54 8.54 0 0 0 0 23.61a16.65 16.65 0 0 0 8.68 14L6.36 25.72Z" fill="#FDC305"/><path d="M26.29 17.12A89.8 89.8 0 0 0 24.89.65S24.75-.64 24 .41c-.59 1.25-1 2.58-1.2 3.94a70.34 70.34 0 0 0-12.77.34C9.24 2 7.85.75 7.18 1c-.67.25-.72 3.31-.72 3.31l-.33 14.1c6.68-.9 13.42-1.34 20.16-1.29Z" fill="#F06351"/><path d="M12.41 14c0-.09 1 .68 1.41.92.41.24.61.42.61.59 0 .17-.27.34-.63.34s-.91-.12-1-.27h1.23A8.34 8.34 0 0 1 12.41 14Zm7.48.11-1.09 1.33c0 .06-.17.35.18.3.41-.06.82-.16 1.22-.29.11 0 .07-.19-.11-.17-.18.02-.69.05-1 .11l.84-1.26s.07-.13-.04-.02Zm-3.14 6.09c.46-.2.85-.56 1.09-1 .28-.65 0-.91-.44-1-.6-.11-1.22.01-1.74.34-.39.36-.34.72-.05 1 .35.27.73.49 1.14.66Z" fill="#000"/><path d="M16.35 21.45c-.11.23-.27.43-.46.6-.28.23-.63.36-1 .38a2.15 2.15 0 0 1-1.47-.43 2.3 2.3 0 0 1-.53-.44c-.1-.11-.22-.2-.36-.26 0 0 .75 4.1 2.57 4.75 1.82.65 2.14-.75 2.2-1.13a5.61 5.61 0 0 0-.82-3.23c-.02-.31-.03-.11-.13-.24Z" fill="#F06351"/><path d="M14.71 22.59a3.44 3.44 0 0 1-2.36-1.47.14.14 0 0 1 .03-.15.14.14 0 0 1 .2 0c.5.7 1.26 1.16 2.11 1.3a2.1 2.1 0 0 0 1.63-1l.14-.19.1.21s.37.76 1 .8c.63.04 1.05-.41 1.61-1.28a.14.14 0 0 1 .2 0 .15.15 0 0 1 .05.2c-.64 1-1.27 1.44-1.88 1.4a1.55 1.55 0 0 1-1.12-.76 2.26 2.26 0 0 1-1.71.94Z" fill="#000"/><path d="M26.24 18.92a58.63 58.63 0 0 0-5.07 5.19A31.63 31.63 0 0 1 15.88 29c-.22-.53-1.62-1.51-1.62-1.51s-3.13-2.14-5.18-3.82a34.14 34.14 0 0 1-3.13-3l-2-.11c2.89 4.2 7.12 7.3 12 8.8.86-.14 3.27-1.86 5.07-3.26a58.13 58.13 0 0 0 5.94-5.89c.5-.59.89-1.27 1.14-2-1.1.39-1.86.71-1.86.71Z" fill="#F06351"/></g><g clip-path="url(#b)" fill="#111"><path d="M91.26 29.54a6.87 6.87 0 0 1-1.26-4.3v-6.4c-.1-1.54.3-3.08 1.19-4.38.86-1 2.2-1.46 4.18-1.46 1.98 0 3.24.46 4.03 1.3a5.42 5.42 0 0 1 1.19 3.78v1.54h-3.87v-1.77a3.7 3.7 0 0 0-.24-1.54 1.16 1.16 0 0 0-1.1-.62c-.56 0-.95.16-1.11.54a4.85 4.85 0 0 0-.24 1.7v8.22c-.04.56.07 1.12.32 1.62.15.38.55.54 1.1.54.56 0 .87-.16 1.03-.54.18-.52.26-1.07.24-1.62v-1.84h3.87v1.54a5.78 5.78 0 0 1-1.19 3.84c-.79.93-2.13 1.39-4.03 1.39-1.9-.08-3.32-.54-4.1-1.54Zm13.99-16.31h4.5l3.33 17.54h-3.64l-.63-3.7h-2.6l-.64 3.7h-3.72l3.4-17.54Zm3.24 11.54-.94-6.85-.95 6.85h1.9Zm7.35-8.62h-2.68v-2.92h9.4v2.85h-2.69v14.69h-4.03V16.15Zm13.91-2.92h6.96v1.85h-4.5v5.77h3.63v1.77h-3.64v6.46h4.5v1.77h-7.03V13.23h.08Zm9.01 0h1.74l5.14 11.62V13.23h2.05v17.54h-1.58l-5.22-12v12h-2.13V13.23Zm11.3 0h6.96v1.85h-4.5v5.77h3.63v1.77h-3.64v6.46h4.5v1.77h-6.95V13.23Zm9.01 0h3.64c1.43-.1 2.85.28 4.03 1.08.87.69 1.26 1.92 1.26 3.54 0 2.23-.7 3.61-2.21 4.07l2.53 8.77h-2.45l-2.37-8.23h-1.98v8.23H159V13.23h.08Zm3.48 7.54c.81.06 1.63-.15 2.3-.62.47-.38.7-1.15.7-2.3a4.84 4.84 0 0 0-.24-1.7c-.17-.39-.48-.71-.86-.92a3.69 3.69 0 0 0-1.74-.3h-1.1v5.76h.94v.08Zm8.61 8.69a7.6 7.6 0 0 1-1.1-4.46v-5.85c-.02-1.11.11-2.22.4-3.3.26-.81.78-1.51 1.5-2 .88-.51 1.9-.75 2.92-.7 1.66 0 2.84.39 3.55 1.23a5.77 5.77 0 0 1 1.11 3.85v.62h-2.37v-.54c0-.65-.05-1.29-.16-1.93-.06-.4-.3-.76-.63-1a2.5 2.5 0 0 0-1.5-.38 2.42 2.42 0 0 0-1.58.46 1.73 1.73 0 0 0-.64 1.23c-.1.69-.15 1.38-.15 2.08v6.54c-.06 1 .1 2 .47 2.92.32.62.95.85 1.9.85.37.04.75-.02 1.09-.19.34-.16.62-.42.8-.74.42-.97.61-2.02.56-3.07v-1.23h-2.3v-1.77h4.59v8.69h-1.58l-.24-2c-.2.67-.64 1.25-1.22 1.66-.6.4-1.3.6-2.02.57a4.05 4.05 0 0 1-3.4-1.54Zm13.52-4.84L180.8 13.3h2.38l2.76 8.46 2.69-8.46H191l-3.87 11.3v6.16h-2.37v-6.15h-.08Z"/></g></symbol><symbol id="cat-logo-text"><g clip-path="url(#a)" fill="#111"><path d="M1.26 16.54A6.86 6.86 0 0 1 0 12.24v-6.4C-.1 4.3.3 2.77 1.19 1.47 2.05.46 3.39 0 5.37 0 7.35 0 8.61.46 9.4 1.3a5.42 5.42 0 0 1 1.19 3.78v1.54H6.72V4.85a3.7 3.7 0 0 0-.24-1.54 1.16 1.16 0 0 0-1.1-.62c-.56 0-.95.16-1.11.54a4.85 4.85 0 0 0-.24 1.7v8.22c-.04.56.07 1.12.32 1.62.15.38.55.54 1.1.54.56 0 .87-.16 1.03-.54.18-.52.26-1.07.24-1.62v-1.84h3.87v1.54a5.77 5.77 0 0 1-1.19 3.84c-.79.93-2.13 1.39-4.03 1.39-1.9-.08-3.32-.54-4.1-1.54ZM15.25.23h4.5l3.33 17.54h-3.64l-.63-3.7h-2.6l-.64 3.7h-3.72L15.25.23Zm3.24 11.54-.95-6.85-.94 6.85h1.9Zm7.35-8.62h-2.68V.23h9.4v2.85h-2.69v14.69h-4.03V3.15ZM39.75.23h6.96v1.85h-4.5v5.77h3.63v1.77H42.2v6.46h4.5v1.77h-7.03V.23h.08Zm9.01 0h1.74l5.14 11.62V.23h2.05v17.54h-1.58l-5.21-12v12h-2.14V.23Zm11.3 0h6.96v1.85h-4.5v5.77h3.63v1.77H62.5v6.46H67v1.77h-6.95V.23Zm9.01 0h3.64c1.43-.1 2.85.28 4.03 1.08C77.6 2 78 3.23 78 4.85c0 2.23-.7 3.61-2.21 4.07l2.53 8.77h-2.45L73.5 9.46h-1.98v8.23H69V.23h.08Zm3.48 7.54c.81.06 1.63-.15 2.3-.62.47-.38.7-1.15.7-2.3a4.85 4.85 0 0 0-.23-1.7c-.18-.39-.49-.71-.87-.92a3.69 3.69 0 0 0-1.74-.3h-1.1v5.76h.94v.08Zm8.61 8.69a7.61 7.61 0 0 1-1.1-4.46V6.15c-.02-1.11.11-2.22.4-3.3.26-.81.78-1.51 1.5-2 .88-.51 1.9-.75 2.92-.7 1.66 0 2.84.39 3.55 1.23a5.77 5.77 0 0 1 1.11 3.85v.62h-2.37V5.3c0-.65-.05-1.29-.16-1.93-.06-.4-.3-.76-.63-1a2.5 2.5 0 0 0-1.5-.38 2.42 2.42 0 0 0-1.58.46 1.75 1.75 0 0 0-.63 1.23c-.1.69-.16 1.38-.16 2.08v6.54c-.06 1 .1 2 .47 2.92.32.62.95.85 1.9.85a1.96 1.96 0 0 0 1.9-.93c.41-.97.6-2.02.55-3.07v-1.23h-2.3V9.08h4.59v8.69h-1.58l-.24-2c-.2.67-.64 1.25-1.22 1.66-.6.4-1.3.6-2.02.57a4.05 4.05 0 0 1-3.4-1.54Zm13.52-4.84L90.8.3h2.37l2.76 8.46L98.63.3H101l-3.87 11.3v6.16h-2.37v-6.15h-.08Z"/></g></symbol><symbol id="cat_back-program-tablet"><circle cx="100" cy="111" r="100" fill="#68B738"/><g clip-path="url(#a)"><path d="M139.68 0h-.76A7 7 0 0 0 136 3.18c-1.13 2.16-2 4.45-2.58 6.82a3.26 3.26 0 0 1-2.96 2.68A14.67 14.67 0 0 0 120 20.24a54.62 54.62 0 0 0-3.7 8c-2.84 7.36-5.02 14.96-7.7 22.38-1.26 3.38-1.32 3.38-5.12 3.38-4.54 0-4.22-.7-4.28 4.3 0 1.58.48 2.38 2.16 2.3.52 0 1.3-.26 1.5.42.2.68-.48.98-.88 1.38a18 18 0 0 1-8.66 4.88c-3.8 1.02-7.68 1.82-11.38 3.06-9.5 3.18-18.28 7.62-25.12 15.14a56 56 0 0 0-9.48 15.68c-7.34 17.28-10.9 35.48-13.66 53.86a375.77 375.77 0 0 0-2.92 26C30.4 185.3 30 189.64 30 194h66.66a4.36 4.36 0 0 0-.46-2.56 10 10 0 0 0-7.66-6.14c-1.4-.32-1.56-.74-.7-1.84a20.7 20.7 0 0 0 3.18-6.2c3.26-9.62 4.52-19.66 6.1-29.6A60 60 0 0 1 104 126a43.21 43.21 0 0 1 11.18-12.74c1.66-1.26 1.72-1.26 2 .88.2 1.42.24 2.88.34 4.32.6 9.45.48 18.93-.36 28.36-.75 7.31-.86 14.67-.3 22 .8 8.5 2.31 16.93 4.54 25.18H148a10.82 10.82 0 0 0-8.48-8.88 18 18 0 0 0-7.52.4c-1.2.28-1.7 0-1.8-1.3a112.73 112.73 0 0 1 2-31.64c2.67-12 4.71-24.14 6.12-36.36a35.5 35.5 0 0 1 4.56-14c2.38-4.24 4.46-8.64 6.8-12.9a11.75 11.75 0 0 0 .84-10.38c-.54-1.42-1.06-2.86-1.72-4.22-2-3.9-4-7.76-5.84-11.7-.98-2-.76-2.24 1.42-2.3 3.26 0 3.26 0 3.32-3.28v-1.32c0-1.38-.52-2.14-2-2h-3.04c-1.38 0-1.78-.58-1.44-2a12.48 12.48 0 0 1 10.26-8.86 44 44 0 0 1 13.24.86 2 2 0 0 0 2.5-1.28c.8-2 1.68-4 2.58-6a2 2 0 0 0-.2-2.28c-6.4-8.12-13.34-15.7-22.8-20.56a2.98 2.98 0 0 1-1.76-2.24 39.16 39.16 0 0 0-2.54-8.32A7 7 0 0 0 139.68 0Z" fill="#000"/></g></symbol><symbol id="cat_program"><circle cx="25" cy="28" r="25" fill="#68B738"/><g clip-path="url(#a)"><path d="M35.2 0H35c-.32.19-.59.47-.74.82a8.03 8.03 0 0 0-.67 1.76.84.84 0 0 1-.76.69 3.77 3.77 0 0 0-2.69 1.95c-.37.66-.69 1.35-.95 2.06-.73 1.9-1.29 3.85-1.98 5.77-.32.87-.34.87-1.32.87-1.16 0-1.08-.18-1.1 1.1 0 .41.13.62.56.6.13 0 .33-.07.39.1.05.18-.13.26-.23.36a4.63 4.63 0 0 1-2.23 1.26c-.97.26-1.97.47-2.92.79-2.45.82-4.7 1.96-6.46 3.9a14.44 14.44 0 0 0-2.44 4.04c-1.89 4.46-2.8 9.15-3.51 13.88a97.06 97.06 0 0 0-.75 6.7C7.1 47.75 7 48.88 7 50h17.14c.03-.23-.01-.46-.12-.66a2.58 2.58 0 0 0-1.97-1.58c-.36-.08-.4-.2-.18-.48.36-.48.64-1.02.82-1.6.84-2.47 1.16-5.06 1.57-7.62.23-1.96.83-3.85 1.77-5.59a11.13 11.13 0 0 1 2.87-3.28c.43-.32.45-.32.52.23.05.36.06.74.09 1.11.15 2.44.12 4.88-.1 7.31-.2 1.88-.22 3.78-.07 5.67.2 2.2.59 4.36 1.16 6.49h6.84a2.8 2.8 0 0 0-2.18-2.29c-.64-.1-1.3-.07-1.93.1-.31.08-.44 0-.46-.33-.22-2.73-.04-5.47.51-8.16a91.8 91.8 0 0 0 1.57-9.37c.14-1.27.54-2.5 1.18-3.6.6-1.1 1.14-2.23 1.74-3.33a3.03 3.03 0 0 0 .22-2.67c-.14-.37-.27-.74-.44-1.1-.52-1-1.03-2-1.5-3-.26-.52-.2-.59.36-.6.84 0 .84 0 .86-.85v-.34c0-.35-.14-.55-.52-.51h-.78c-.36 0-.46-.15-.37-.52a3.22 3.22 0 0 1 2.64-2.28 11.3 11.3 0 0 1 3.4.22.51.51 0 0 0 .65-.33 40 40 0 0 1 .66-1.55.52.52 0 0 0-.05-.58c-1.65-2.1-3.43-4.05-5.87-5.3a.77.77 0 0 1-.45-.58 9.81 9.81 0 0 0-.65-2.14A1.8 1.8 0 0 0 35.2 0Z" fill="#000"/></g></symbol><symbol id="icon-program-clock"><path fill="#68B738" d="M.5 0h60v60H.5z"/><path d="M23.54 15c-1.06 0-1.06 1.58 0 1.58h6.64v1.6c-6.8.44-12.18 6.23-12.18 13.3 0 4.02 1.74 7.64 4.5 10.07.47.43.54 1.18.1 1.64l-1.53 1.55c-.74.69.36 1.75 1.03 1l2-2.03c.35-.34.87-.43 1.3-.21a12.7 12.7 0 0 0 11.07.06c.43-.21.96-.13 1.3.21l1.94 1.97c.68.64 1.65-.31 1.04-1l-1.45-1.48c-.44-.45-.38-1.2.1-1.63A13.46 13.46 0 0 0 44 31.47c0-7.07-5.41-12.87-12.22-13.28v-1.6h6.64c1.06 0 1.06-1.59 0-1.59H23.54Zm-4.1 16.47A11.7 11.7 0 0 1 31 19.65c6.38 0 11.55 5.3 11.55 11.82 0 6.55-5.17 11.85-11.55 11.85-6.38 0-11.57-5.3-11.57-11.85Zm10.75-8.09c0-1.1 1.66-1.1 1.66 0v8.63a.84.84 0 0 1-.85.85.81.81 0 0 1-.8-.8v-8.68ZM25.22 26a1.16 1.16 0 0 0 1.16-1.15 1.15 1.15 0 0 0-1.16-1.15 1.16 1.16 0 0 0-1.05 1.14A1.15 1.15 0 0 0 25.22 26Zm11.55 0a1.16 1.16 0 0 0 1.16-1.15 1.15 1.15 0 0 0-1.16-1.15 1.16 1.16 0 0 0-1.05 1.14A1.15 1.15 0 0 0 36.77 26Zm-10.4 12.59c0 1.53-2.31 1.53-2.31 0s2.32-1.53 2.32 0ZM31 42.03a1.17 1.17 0 0 0 1.17-.68 1.14 1.14 0 0 0-.7-1.56 1.17 1.17 0 0 0-1.22.32 1.15 1.15 0 0 0 .75 1.92Zm-8.09-10.39a1.14 1.14 0 0 1-.68 1.17 1.17 1.17 0 0 1-1.57-.7 1.14 1.14 0 0 1 .32-1.2 1.16 1.16 0 0 1 1.93.73Zm17.33 1.15a1.16 1.16 0 0 0 1.17-.68 1.14 1.14 0 0 0-.7-1.55 1.17 1.17 0 0 0-1.22.32 1.15 1.15 0 0 0 .75 1.91Zm-2.31 5.8c0 1.53-2.32 1.53-2.32 0s2.32-1.53 2.32 0Z" fill="#fff"/></symbol><symbol id="icon-program-cutlery"><path fill="#68B738" d="M.5 0h60v60H.5z"/><path fill-rule="evenodd" clip-rule="evenodd" d="M36.62 15.08a1 1 0 0 1 1.09.21c.9.91 2.1 2.88 3.06 5.92A42.6 42.6 0 0 1 42.5 34a1 1 0 0 1-1 1H38v9a1 1 0 1 1-2 0V16a1 1 0 0 1 .62-.92ZM38 33h2.5a39.62 39.62 0 0 0-1.64-11.19 22.4 22.4 0 0 0-.86-2.3V33ZM24 15a1 1 0 0 1 1 1v28a1 1 0 1 1-2 0V16a1 1 0 0 1 1-1Z" fill="#fff"/><path fill-rule="evenodd" clip-rule="evenodd" d="M19.5 15a1 1 0 0 1 1 1v5.5c0 .56.2 1.32.7 1.92.48.56 1.31 1.08 2.8 1.08a1 1 0 1 1 0 2 5.41 5.41 0 0 1-4.33-1.8 5.07 5.07 0 0 1-1.17-3.2V16a1 1 0 0 1 1-1Z" fill="#fff"/><path fill-rule="evenodd" clip-rule="evenodd" d="M28.5 15a1 1 0 0 0-1 1v5.5c0 .56-.2 1.32-.7 1.92-.48.56-1.31 1.08-2.8 1.08a1 1 0 0 0 0 2c2.01 0 3.43-.73 4.33-1.8a5.07 5.07 0 0 0 1.17-3.2V16a1 1 0 0 0-1-1Z" fill="#fff"/></symbol><symbol id="icon-program-fast_cook"><path fill="#68B738" d="M.5 0h60v60H.5z"/><path d="M28.88 16c-1.64 0-2.9 1.36-2.9 3.08s1.26 3.08 2.9 3.08c1.63 0 2.9-1.36 2.9-3.08S30.5 16 28.88 16Zm0 1.18c1 0 1.72.84 1.72 1.9 0 1-.8 1.9-1.73 1.9-1 0-1.72-.84-1.72-1.9 0-1 .78-1.9 1.73-1.9ZM18 40.74c0 1.18.4 2.18 1.36 3 1 .84 2.17.77 2.17.77h19.04c.77 0 1.8-.38 2.62-1.45.85-1 .8-2.36.8-2.36V23.5c0-.44-.12-.6-.75-.6-.64 0-.69.27-.69.59V40.7c-.02.3-.07 1.08-.74 1.72-.74.62-1.45.54-1.45.54s-18.13 0-19.03-.03c-.35-.06-.91-.19-1.45-.9-.51-.73-.41-1.63-.41-1.63V23.18c0-.46-.24-.64-.73-.64s-.74.18-.74.58v17.62Zm16.31-16.31c-1.09.23-2.17.38-4.26 2.35-2.08 2-3.62 1.9-5.16 1.82-1.54-.1-3.17-1.54-3.45-1.9-.33-.36-.9-.12-1.08.11-.16.24-.16.64.1 1 1.27 1.18 2.45 2.08 4.72 2.26a7.5 7.5 0 0 0 5.89-2.26c1.45-1.45 2.17-1.72 3.26-1.9a6.3 6.3 0 0 1 5.08 1.26c1 1.1 1.26.78 1.54.48.54-.72-.23-1.27-1.1-1.9a7.24 7.24 0 0 0-5.52-1.28l-.02-.04Zm-9.06 7.16c-1.18 0-2.08 1-2.08 2.26 0 1.27.9 2.27 2.08 2.27 1.18 0 2.08-1 2.08-2.27s-.9-2.26-2.08-2.26Zm11.78.78c-1.54 0-2.8 1.36-2.8 2.99 0 1.63 1.26 2.99 2.8 2.99 1.54 0 2.81-1.36 2.81-3 0-1.62-1.27-2.98-2.8-2.98Zm0 1.45c.8 0 1.45.7 1.45 1.54a1.5 1.5 0 0 1-1.45 1.54c-.8 0-1.45-.7-1.45-1.54 0-.86.65-1.54 1.45-1.54Z" fill="#fff"/></symbol><symbol id="icon-program-least"><path fill="#68B738" d="M.5 0h60v60H.5z"/><g clip-path="url(#a)"><path d="M43.34 16.77a.95.95 0 0 0-.9-.77h-.01c-4.94.03-16.95.92-21.8 8.38-2.51 3.88-2.73 8.91-.64 14.96l.07.13a25.93 25.93 0 0 0-1.04 3.32c-.11.54.21 1.07.72 1.19l.2.02c.43 0 .81-.32.9-.79.03-.1 2.42-10.37 10.86-16.38.43-.3.55-.92.26-1.38a.9.9 0 0 0-1.3-.28c-4.79 3.4-7.74 8-9.47 11.65-1.24-4.57-.92-8.37.99-11.3 3.74-5.77 12.62-7.16 17.98-7.45-1.15 1.8-2.41 5.1-2.41 10.93 0 3.12-.83 5.52-2.47 7.14-2.62 2.6-6.88 2.83-10 2.58-.51-.04-.96.38-1 .93-.04.55.35 1.03.86 1.07.63.05 1.3.08 1.98.08 3.18 0 6.87-.66 9.43-3.2 2.04-2 3.07-4.9 3.07-8.6 0-9.1 3.22-11.1 3.23-11.1.4-.21.6-.68.5-1.13Z" fill="#fff"/></g></symbol><symbol id="icon_gift-catalog"><path d="M64.02 34.71H14.03a3.17 3.17 0 0 1-3.18-3.16v-9.47a3.17 3.17 0 0 1 3.18-3.16h49.98a3.17 3.17 0 0 1 3.19 3.16v9.47a3.17 3.17 0 0 1-3.18 3.16ZM14.03 21.35c-.4 0-.74.33-.74.73v9.47c0 .41.33.74.74.74h49.98c.41 0 .75-.33.75-.74v-9.47c0-.4-.34-.73-.75-.73H14.03Z" fill="#fff"/><path d="M57.04 67.15H21a6.11 6.11 0 0 1-6.13-6.09V33.5c0-.67.55-1.2 1.22-1.2.68 0 1.22.53 1.22 1.2v27.56A3.68 3.68 0 0 0 21 64.73h36.04a3.68 3.68 0 0 0 3.7-3.67V33.5a1.22 1.22 0 0 1 2.44 0v27.56a6.11 6.11 0 0 1-6.14 6.09Z" fill="#fff"/><path d="M39.02 67.15c-.67 0-1.22-.54-1.22-1.21V33.5c0-.67.55-1.2 1.22-1.2.68 0 1.22.53 1.22 1.2v32.44c0 .67-.54 1.2-1.22 1.2ZM23.81 21.34a7.8 7.8 0 0 1-3.17-10.6A7.9 7.9 0 0 1 31.3 7.6c5.82 3.13 8.96 11.86 9.09 12.23l-2.3.8c-.03-.08-2.96-8.22-7.95-10.9a5.46 5.46 0 0 0-7.36 2.17 5.39 5.39 0 0 0 2.2 7.32l-1.17 2.13Z" fill="#fff"/><path d="m54.23 21.34-1.16-2.13a5.38 5.38 0 0 0-1.03-9.92 5.43 5.43 0 0 0-4.14.43c-4.98 2.68-7.91 10.82-7.94 10.9l-2.3-.8c.13-.37 3.27-9.1 9.08-12.23a7.86 7.86 0 0 1 11.29 9.1c-.6 2-1.95 3.66-3.8 4.65Zm7.72 29.59H16.09c-.67 0-1.22-.54-1.22-1.21 0-.67.55-1.21 1.22-1.21h45.86c.67 0 1.22.54 1.22 1.21 0 .67-.55 1.21-1.22 1.21Z" fill="#fff"/></symbol><symbol id="panther_program-tablet"><circle cx="134" cy="100" r="100" fill="#68B738"/><g clip-path="url(#a)"><path d="M246.24 55.51a30.4 30.4 0 0 1 9-9.2c2-1.4 3.2-1.4 4.4 1.2 1.6 3.8 3 7.8 1.8 12a4.59 4.59 0 0 0 .8 4.2c1.2 1.6 2.2 3.2 3.2 4.6a12.54 12.54 0 0 1 1.8 12.4 10.86 10.86 0 0 0-.4 6.2c.4 1.98.4 4.02 0 6a7.5 7.5 0 0 1-5.4 6.4 10.42 10.42 0 0 0-6.4 4 2.09 2.09 0 0 1-1.8 1c-2.4.4-8.4-5-8.4-7.4v-1.2c.2-7.2-.2-7.8-6.8-10.8a8.78 8.78 0 0 1-3.6-2.4c-1.2-1.6-2.8-1.4-4.6-.8-1.8.6-2.8 1.8-2.6 3.8.6 4.85.8 9.73.6 14.6.01.56.15 1.1.4 1.6 6.2 9 8.6 19.6 11.6 29.8 2.4 7.8 6.8 12 14.8 12.6 1.28.1 2.55.3 3.8.6a8.32 8.32 0 0 1 6.8 6.4c1.4 4.2.6 5.2-3.6 5.2h-13a6.48 6.48 0 0 1-4.6-1.6 23.39 23.39 0 0 0-6.8-4 14.53 14.53 0 0 1-6.8-5.2 57.16 57.16 0 0 0-8-9c-5.6-5.8-11.6-11.4-16.8-17.4a22.77 22.77 0 0 1-6.4-15.2c0-1.8-.4-2.6-2.4-1.8-.6.38-1.3.6-2 .6-5.6 0-8.4 3.4-10.4 8.4-1.8 4.2-4.2 8.2-6.4 12.4a20.8 20.8 0 0 0-2 8.4c0 4.8 1.2 6.4 5.6 8 2.8 1 5.4 2 6.8 4.8 1.6 3.2 1.2 4-2.2 4.2h-13.6a3.76 3.76 0 0 1-3.8-2.2l-3.6-6a12.1 12.1 0 0 1-1.4-10.8c.86-3.47.93-7.1.2-10.6a16.84 16.84 0 0 1 3.4-14c1.2-1.4 1.2-2-.8-2.4a100.17 100.17 0 0 1-23.74-8.25.2.2 0 0 1-.06-.15c-6.4-2.4-7.6-2-9.4 4.6-1.6 5.6-3.2 11.2-4.4 17-1.4 6.4.2 12.4 2.2 18.4.8 2.4 3.2 2.2 5 2.8 4 1.2 7.4 2.8 9 7 1.4 3.2 1.2 3.6-2.2 3.6-3.4 0-6.8-.2-10.4 0-3.04.06-6-.93-8.4-2.8-9.6-6.4-12.4-16.2-13.2-26.8-.4-6.6-4-11.8-8.2-16.8-.8-1-1.6-1.4-2.8-.6a88.63 88.63 0 0 1-13.4 6 53.42 53.42 0 0 0-24.4 17.6 21.26 21.26 0 0 0-4.4 10.2c-.6 3.6.4 5.2 4 6.2s5.4 3 5.8 6.8c.2 1.6-.4 2.4-2 2.4h-16.2a3.3 3.3 0 0 1-2.6-1.6c-2.52-3.1-3.86-7-3.8-11-.1-6.9.5-13.8 1.8-20.6a12.6 12.6 0 0 1 6.8-9.6c11.8-5.6 18-16.2 23.6-27.2 1.2-2.2.2-2.6-1.8-2.4-5.6.78-10.9 2.98-15.4 6.4-5.9 4.3-11.45 9.05-16.6 14.2a33.34 33.34 0 0 1-20.6 9.8c-14.6.8-21.4-7.4-20.8-20.6.13-4.5 1.83-8.81 4.8-12.2a8.5 8.5 0 0 1 9-3c3 .8 3.8 2.4 2.6 5.4-.6 1.2-1.4 2.2-2 3.4a15 15 0 0 0-2 4c-2.2 6 .8 10.2 7 10.8 6.6.6 12-2.2 17-6.2a89.88 89.88 0 0 0 16-16.6 41.58 41.58 0 0 1 28.8-16.2c4.6-.6 8.6-2.6 13-3.8a83.01 83.01 0 0 1 25.4-3.6 26 26 0 0 0 11.6-2.2c9.8-4 20-4 30.2-2 8 1.6 16 3.6 23.8 5.6 4.64.87 9.41.73 14-.4a135.6 135.6 0 0 1 26.8-4c5.92-.28 11.83.88 17.2 3.4 4 1.8 4 1.8 3 5.6Z" fill="#000"/></g></symbol><symbol id="panther_program"><circle cx="34" cy="25" r="25" fill="#68B738"/><g clip-path="url(#a)"><path d="M61.56 13.88a7.6 7.6 0 0 1 2.25-2.3c.5-.35.8-.35 1.1.3.4.95.75 1.95.45 3a1.14 1.14 0 0 0 .2 1.05c.3.4.55.8.8 1.15a3.14 3.14 0 0 1 .45 3.1c-.18.5-.22 1.03-.1 1.55.1.5.1 1 0 1.5a1.87 1.87 0 0 1-1.35 1.6 2.6 2.6 0 0 0-1.6 1 .53.53 0 0 1-.45.25c-.6.1-2.1-1.25-2.1-1.85v-.3c.05-1.8-.05-1.95-1.7-2.7a2.2 2.2 0 0 1-.9-.6c-.3-.4-.7-.35-1.15-.2-.45.15-.7.45-.65.95.15 1.2.2 2.43.15 3.65 0 .14.04.27.1.4 1.55 2.25 2.15 4.9 2.9 7.45.6 1.95 1.7 3 3.7 3.15.32.02.64.07.95.15a2.08 2.08 0 0 1 1.7 1.6c.35 1.05.15 1.3-.9 1.3h-3.25c-.42.02-.83-.12-1.15-.4a5.86 5.86 0 0 0-1.7-1 3.63 3.63 0 0 1-1.7-1.3 14.3 14.3 0 0 0-2-2.25c-1.4-1.45-2.9-2.85-4.2-4.35a5.69 5.69 0 0 1-1.6-3.8c0-.45-.1-.65-.6-.45a.96.96 0 0 1-.5.15c-1.4 0-2.1.85-2.6 2.1-.45 1.05-1.05 2.05-1.6 3.1a5.2 5.2 0 0 0-.5 2.1c0 1.2.3 1.6 1.4 2 .7.25 1.35.5 1.7 1.2.4.8.3 1-.55 1.05h-3.4a.94.94 0 0 1-.95-.55l-.9-1.5a3.02 3.02 0 0 1-.35-2.7c.22-.87.23-1.78.05-2.65a4.21 4.21 0 0 1 .85-3.5c.3-.35.3-.5-.2-.6a25.03 25.03 0 0 1-5.95-2.1c-1.6-.6-1.9-.5-2.35 1.15-.4 1.4-.8 2.8-1.1 4.25-.35 1.6.05 3.1.55 4.6.2.6.8.55 1.25.7 1 .3 1.85.7 2.25 1.75.35.8.3.9-.55.9-.85 0-1.7-.05-2.6 0-.76.01-1.5-.23-2.1-.7-2.4-1.6-3.1-4.05-3.3-6.7-.1-1.65-1-2.95-2.05-4.2-.2-.25-.4-.35-.7-.15-1.07.59-2.2 1.1-3.35 1.5a13.36 13.36 0 0 0-6.1 4.4 5.32 5.32 0 0 0-1.1 2.55c-.15.9.1 1.3 1 1.55s1.35.75 1.45 1.7c.05.4-.1.6-.5.6h-4.05a.82.82 0 0 1-.65-.4 4.28 4.28 0 0 1-.95-2.75 25.3 25.3 0 0 1 .45-5.15 3.15 3.15 0 0 1 1.7-2.4c2.95-1.4 4.5-4.05 5.9-6.8.3-.55.05-.65-.45-.6-1.4.2-2.73.74-3.85 1.6a35.32 35.32 0 0 0-4.15 3.55 8.33 8.33 0 0 1-5.15 2.45c-3.65.2-5.35-1.85-5.2-5.15.03-1.13.46-2.2 1.2-3.05a2.13 2.13 0 0 1 2.25-.75c.75.2.95.6.65 1.35-.15.3-.35.55-.5.85-.22.3-.39.64-.5 1-.55 1.5.2 2.55 1.75 2.7 1.65.15 3-.55 4.25-1.55 1.5-1.2 2.85-2.6 4-4.15a10.4 10.4 0 0 1 7.2-4.05c1.15-.15 2.15-.65 3.25-.95 2.06-.63 4.2-.93 6.35-.9a6.5 6.5 0 0 0 2.9-.55c2.45-1 5-1 7.55-.5 2 .4 4 .9 5.95 1.4 1.16.21 2.35.18 3.5-.1 2.2-.56 4.44-.9 6.7-1a9.08 9.08 0 0 1 4.3.85c1 .45 1 .45.75 1.4Z" fill="#000"/></g></symbol><symbol id="program-arrow-right"><path stroke="#000" stroke-width="2" d="M0 6h18"/><path d="m24 6-6.75 5.2V.8L24 6Z" fill="#000"/></symbol><symbol id="icon-plus-tablet"><path stroke="#D3D3D3" stroke-width="2" d="M31 0v60m29-29H0"/></symbol><symbol id="icon-plus"><path stroke="#D3D3D3" stroke-width="2" d="M15 0v30m15-15H0"/></symbol></svg>